<svg xmlns="http://www.w3.org/2000/svg" width="38" height="30" viewBox="0 0 38 30" fill="none"><path d="M15.8116 1.03125V28.5312C15.8116 28.8048 15.7029 29.0671 15.5095 29.2605C15.3161 29.4539 15.0538 29.5625 14.7803 29.5625C14.5068 29.5625 14.2445 29.4539 14.0511 29.2605C13.8577 29.0671 13.7491 28.8048 13.7491 28.5312V15.8125H3.52081L7.25909 19.5525C7.36041 19.6469 7.44168 19.7608 7.49804 19.8873C7.55441 20.0138 7.58471 20.1503 7.58716 20.2888C7.5896 20.4272 7.56413 20.5648 7.51226 20.6932C7.46039 20.8216 7.3832 20.9383 7.28527 21.0362C7.18734 21.1341 7.0707 21.2113 6.94229 21.2632C6.81388 21.315 6.67634 21.3405 6.53787 21.3381C6.39941 21.3356 6.26285 21.3053 6.13635 21.2489C6.00985 21.1926 5.896 21.1113 5.80159 21.01L0.301593 15.51C0.108473 15.3166 0 15.0545 0 14.7812C0 14.508 0.108473 14.2459 0.301593 14.0525L5.80159 8.5525C5.99708 8.37034 6.25565 8.27117 6.52281 8.27588C6.78998 8.2806 7.04488 8.38883 7.23382 8.57777C7.42277 8.76671 7.53099 9.02162 7.53571 9.28878C7.54042 9.55595 7.44125 9.81451 7.25909 10.01L3.52081 13.75H13.7491V1.03125C13.7491 0.757745 13.8577 0.495443 14.0511 0.302046C14.2445 0.108649 14.5068 0 14.7803 0C15.0538 0 15.3161 0.108649 15.5095 0.302046C15.7029 0.495443 15.8116 0.757745 15.8116 1.03125ZM37.5091 14.0525L32.0091 8.5525C31.8136 8.37034 31.555 8.27117 31.2879 8.27588C31.0207 8.2806 30.7658 8.38883 30.5769 8.57777C30.3879 8.76671 30.2797 9.02162 30.275 9.28878C30.2703 9.55595 30.3694 9.81451 30.5516 10.01L34.2899 13.75H24.0616V1.03125C24.0616 0.757745 23.9529 0.495443 23.7595 0.302046C23.5662 0.108649 23.3038 0 23.0303 0C22.7568 0 22.4945 0.108649 22.3011 0.302046C22.1077 0.495443 21.9991 0.757745 21.9991 1.03125V28.5312C21.9991 28.8048 22.1077 29.0671 22.3011 29.2605C22.4945 29.4539 22.7568 29.5625 23.0303 29.5625C23.3038 29.5625 23.5662 29.4539 23.7595 29.2605C23.9529 29.0671 24.0616 28.8048 24.0616 28.5312V15.8125H34.2899L30.5516 19.5525C30.4503 19.6469 30.369 19.7608 30.3126 19.8873C30.2563 20.0138 30.226 20.1503 30.2235 20.2888C30.2211 20.4272 30.2466 20.5648 30.2984 20.6932C30.3503 20.8216 30.4275 20.9383 30.5254 21.0362C30.6233 21.1341 30.74 21.2113 30.8684 21.2632C30.9968 21.315 31.1343 21.3405 31.2728 21.3381C31.4113 21.3356 31.5478 21.3053 31.6743 21.2489C31.8008 21.1926 31.9147 21.1113 32.0091 21.01L37.5091 15.51C37.7022 15.3166 37.8107 15.0545 37.8107 14.7812C37.8107 14.508 37.7022 14.2459 37.5091 14.0525Z" fill="#40A4B3"></path></svg>