<svg xmlns="http://www.w3.org/2000/svg" width="40" height="40" viewBox="0 0 40 40" fill="none"><path d="M38.3791 7.49987C38.3653 7.27105 38.2682 7.05519 38.1062 6.89309C37.9441 6.731 37.7282 6.63391 37.4994 6.62019C29.5306 6.15144 23.1431 8.56081 20.4134 13.0671C18.5962 16.0686 18.6353 19.7358 20.4962 23.2233C19.3031 24.5893 18.4715 26.2326 18.0775 28.003L14.9837 24.9077C16.2572 22.3921 16.2494 19.7592 14.9337 17.5874C12.9322 14.2827 8.28062 12.5108 2.48375 12.8546C2.25467 12.8683 2.0386 12.9656 1.87647 13.128C1.71434 13.2905 1.61742 13.5067 1.60406 13.7358C1.26344 19.5311 3.03219 24.1827 6.33687 26.1842C7.41317 26.8421 8.65048 27.1892 9.91187 27.1874C11.2182 27.1741 12.503 26.8529 13.6619 26.2499L17.8119 30.3874V34.9999C17.8119 35.2485 17.9106 35.487 18.0865 35.6628C18.2623 35.8386 18.5007 35.9374 18.7494 35.9374C18.998 35.9374 19.2365 35.8386 19.4123 35.6628C19.5881 35.487 19.6869 35.2485 19.6869 34.9999V30.3921C19.6806 28.2443 20.4433 26.1653 21.8369 24.5311C23.5884 25.4577 25.3869 25.9233 27.1212 25.9233C28.8177 25.9289 30.4826 25.4655 31.9322 24.5842C36.4384 21.8577 38.8478 15.4686 38.3791 7.49987ZM7.30875 24.5796C4.76031 23.0374 3.34156 19.3749 3.43687 14.6874C8.12437 14.5858 11.7822 16.0061 13.3244 18.5546C14.2119 20.0186 14.2869 21.7389 13.565 23.4905L9.41187 19.3358C9.23596 19.1599 8.99737 19.0611 8.74859 19.0611C8.49981 19.0611 8.26122 19.1599 8.08531 19.3358C7.9094 19.5117 7.81057 19.7503 7.81057 19.9991C7.81057 20.2479 7.9094 20.4865 8.08531 20.6624L12.2447 24.8202C10.4931 25.5421 8.77281 25.4686 7.30875 24.5796ZM30.9619 22.9827C28.6587 24.3764 25.94 24.4171 23.2009 23.1233L31.9134 14.4124C32.0005 14.3253 32.0696 14.2219 32.1168 14.1081C32.1639 13.9943 32.1882 13.8723 32.1882 13.7491C32.1882 13.6259 32.1639 13.5039 32.1168 13.3901C32.0696 13.2763 32.0005 13.1729 31.9134 13.0858C31.8263 12.9987 31.7229 12.9296 31.6091 12.8825C31.4953 12.8353 31.3733 12.8111 31.2502 12.8111C31.127 12.8111 31.005 12.8353 30.8912 12.8825C30.7774 12.9296 30.674 12.9987 30.5869 13.0858L21.8744 21.7983C20.5806 19.0592 20.6244 16.3405 22.015 14.0389C24.2837 10.2889 29.6806 8.22956 36.5462 8.453C36.7697 15.3124 34.7087 20.7124 30.9619 22.9827Z" fill="white"></path></svg>