<svg xmlns="http://www.w3.org/2000/svg" width="35" height="35" viewBox="0 0 35 35" fill="none"><path d="M32.2531 13.4687C31.6437 12.8328 31.0141 12.1766 30.7609 11.5656C30.5266 10.9984 30.5141 10.1594 30.5 9.27187C30.4781 7.80625 30.4531 6.14688 29.3406 5.03438C28.2281 3.92188 26.5625 3.89687 25.1031 3.875C24.2156 3.86094 23.3844 3.84844 22.8094 3.61406C22.1984 3.36094 21.5422 2.73125 20.9063 2.12187C19.8688 1.12812 18.6938 0 17.1875 0C15.6812 0 14.5062 1.12812 13.4687 2.12187C12.8328 2.73125 12.1766 3.36094 11.5656 3.61406C10.9984 3.84844 10.1594 3.86094 9.27187 3.875C7.80625 3.89687 6.14688 3.92188 5.03438 5.03438C3.92188 6.14688 3.89687 7.8125 3.875 9.27187C3.86094 10.1594 3.84844 10.9906 3.61406 11.5656C3.36094 12.1766 2.73125 12.8328 2.12187 13.4687C1.12812 14.5062 0 15.6812 0 17.1875C0 18.6938 1.12812 19.8688 2.12187 20.9063C2.73125 21.5422 3.36094 22.1984 3.61406 22.8094C3.84844 23.3766 3.86094 24.2156 3.875 25.1031C3.89687 26.5688 3.92188 28.2281 5.03438 29.3406C6.14688 30.4531 7.8125 30.4781 9.27187 30.5C10.1594 30.5141 10.9906 30.5266 11.5656 30.7609C12.1766 31.0141 12.8328 31.6437 13.4687 32.2531C14.5062 33.2469 15.6812 34.375 17.1875 34.375C18.6938 34.375 19.8688 33.2469 20.9063 32.2531C21.5422 31.6437 22.1984 31.0141 22.8094 30.7609C23.3766 30.5266 24.2156 30.5141 25.1031 30.5C26.5688 30.4781 28.2281 30.4531 29.3406 29.3406C30.4531 28.2281 30.4781 26.5688 30.5 25.1031C30.5141 24.2156 30.5266 23.3844 30.7609 22.8094C31.0141 22.1984 31.6437 21.5422 32.2531 20.9063C33.2469 19.8688 34.375 18.6938 34.375 17.1875C34.375 15.6812 33.2469 14.5062 32.2531 13.4687ZM30.9 19.6094C30.1703 20.3688 29.4156 21.1562 29.025 22.0937C28.6531 22.9906 28.6375 24.05 28.6219 25.075C28.6047 26.2375 28.5859 27.4406 28.0125 28.0156C27.4391 28.5906 26.2344 28.6078 25.0719 28.625C24.0469 28.6406 22.9875 28.6562 22.0906 29.0281C21.1531 29.4156 20.3719 30.1703 19.6047 30.9031C18.7844 31.6844 17.9359 32.5031 17.1844 32.5031C16.4328 32.5031 15.5844 31.6891 14.7625 30.9031C14.0031 30.1734 13.2156 29.4187 12.2781 29.0281C11.3813 28.6562 10.3219 28.6406 9.29688 28.625C8.13437 28.6078 6.93125 28.5891 6.35625 28.0156C5.78125 27.4422 5.76406 26.2375 5.74687 25.075C5.73125 24.05 5.71563 22.9906 5.34375 22.0937C4.95625 21.1562 4.20156 20.375 3.46875 19.6078C2.68906 18.7875 1.875 17.9391 1.875 17.1875C1.875 16.4359 2.68906 15.5875 3.475 14.7656C4.20469 14.0062 4.95938 13.2187 5.35 12.2812C5.72188 11.3844 5.7375 10.325 5.75312 9.3C5.77031 8.1375 5.78906 6.93438 6.3625 6.35938C6.93594 5.78438 8.14063 5.76719 9.30313 5.75C10.3281 5.73437 11.3875 5.71875 12.2844 5.34688C13.2219 4.95938 14.0031 4.20469 14.7703 3.47188C15.5875 2.68906 16.4359 1.875 17.1875 1.875C17.9391 1.875 18.7875 2.68906 19.6094 3.475C20.3688 4.20469 21.1562 4.95938 22.0937 5.35C22.9906 5.72188 24.05 5.7375 25.075 5.75312C26.2375 5.77031 27.4406 5.78906 28.0156 6.3625C28.5906 6.93594 28.6078 8.14063 28.625 9.30313C28.6406 10.3281 28.6562 11.3875 29.0281 12.2844C29.4156 13.2219 30.1703 14.0031 30.9031 14.7703C31.6844 15.5906 32.5031 16.4391 32.5031 17.1906C32.5031 17.9422 31.6859 18.7875 30.9 19.6094ZM24.1 12.775C24.2756 12.9508 24.3742 13.1891 24.3742 13.4375C24.3742 13.6859 24.2756 13.9242 24.1 14.1L15.35 22.85C15.1742 23.0256 14.9359 23.1242 14.6875 23.1242C14.4391 23.1242 14.2008 23.0256 14.025 22.85L10.275 19.1C10.1094 18.9223 10.0192 18.6872 10.0235 18.4443C10.0278 18.2015 10.1262 17.9697 10.298 17.798C10.4697 17.6262 10.7015 17.5278 10.9443 17.5235C11.1872 17.5192 11.4223 17.6094 11.6 17.775L14.6875 20.8609L22.775 12.775C22.9508 12.5994 23.1891 12.5008 23.4375 12.5008C23.6859 12.5008 23.9242 12.5994 24.1 12.775Z" fill="#3B8F9A"></path></svg>