<svg xmlns="http://www.w3.org/2000/svg" width="33" height="27" viewBox="0 0 33 27" fill="none"><path d="M32.0815 22.0908C32.1679 22.195 32.233 22.3153 32.273 22.4447C32.313 22.5742 32.3271 22.7102 32.3145 22.8451C32.3018 22.9799 32.2628 23.111 32.1995 23.2308C32.1362 23.3505 32.05 23.4567 31.9457 23.5431C29.0462 25.9494 26.4457 26.8087 24.0824 26.8087C20.956 26.8087 18.2163 25.3203 15.6708 23.9384C11.2021 21.5115 7.34522 19.4164 1.69569 24.1103C1.48304 24.2849 1.20975 24.3678 0.935928 24.3409C0.662111 24.314 0.410199 24.1794 0.235612 23.9668C0.0610254 23.7541 -0.0219358 23.4808 0.00497863 23.207C0.031893 22.9332 0.166478 22.6813 0.379128 22.5067C7.1046 16.9294 12.1783 19.6862 16.654 22.1183C21.1296 24.5503 24.9796 26.6403 30.6291 21.9464C30.7339 21.8604 30.8547 21.7959 30.9844 21.7566C31.1141 21.7174 31.2503 21.7041 31.3852 21.7175C31.5201 21.7309 31.6511 21.7707 31.7705 21.8348C31.89 21.8989 31.9957 21.9858 32.0815 22.0908ZM30.6291 12.3265C24.9796 17.0136 21.121 14.9167 16.654 12.4984C12.1869 10.0801 7.1046 7.30263 0.379128 12.8817C0.168302 13.0563 0.0354647 13.3075 0.00983963 13.58C-0.0157855 13.8525 0.0679005 14.1241 0.242488 14.3349C0.417075 14.5457 0.668262 14.6786 0.94079 14.7042C1.21332 14.7298 1.48486 14.6461 1.69569 14.4715C7.34522 9.78451 11.2038 11.8797 15.6708 14.2997C18.2163 15.6747 20.956 17.1717 24.0824 17.1717C26.4526 17.1717 29.0462 16.3123 31.9457 13.9061C32.1563 13.7315 32.2889 13.4804 32.3144 13.208C32.3398 12.9357 32.2561 12.6643 32.0815 12.4537C31.9069 12.2431 31.6558 12.1105 31.3834 12.085C31.1111 12.0596 30.8397 12.1434 30.6291 12.3179V12.3265ZM1.69569 4.83966C7.34522 0.152632 11.2038 2.24951 15.6708 4.66779C18.2249 6.05826 20.956 7.55357 24.0824 7.55357C26.4526 7.55357 29.0462 6.69419 31.9457 4.28794C32.05 4.2015 32.1362 4.09536 32.1995 3.97559C32.2627 3.85582 32.3018 3.72476 32.3144 3.58989C32.327 3.45503 32.3129 3.31901 32.2729 3.18958C32.233 3.06016 32.1679 2.93988 32.0815 2.8356C31.995 2.73132 31.8889 2.64509 31.7691 2.58184C31.6493 2.51858 31.5183 2.47953 31.3834 2.46692C31.2486 2.45431 31.1125 2.46839 30.9831 2.50835C30.8537 2.54831 30.7334 2.61337 30.6291 2.69982C24.9796 7.38685 21.121 5.28998 16.654 2.8717C12.1869 0.453414 7.1046 -2.32581 0.379128 3.25669C0.168529 3.43128 0.0359113 3.68238 0.0104474 3.95475C-0.0150165 4.22711 0.0687601 4.49844 0.243347 4.70904C0.417934 4.91964 0.669031 5.05226 0.941398 5.07772C1.21377 5.10318 1.48509 5.01941 1.69569 4.84482V4.83966Z" fill="#40A4B3"></path></svg>